<svg xmlns="http://www.w3.org/2000/svg" xmlns:xlink="http://www.w3.org/1999/xlink" viewBox="0 0 194.59 91.1"><defs><style>.cls-1{fill:url(#名称未設定グラデーション_2);}.cls-2{fill:#e6e6e6;stroke:#fff;stroke-miterlimit:10;stroke-width:0.5px;}</style><linearGradient id="名称未設定グラデーション_2" x1="18.6" y1="3.71" x2="187.71" y2="93.62" gradientUnits="userSpaceOnUse"><stop offset="0" stop-color="#828282"/><stop offset="0.35" stop-color="gray"/><stop offset="0.52" stop-color="#797878"/><stop offset="0.66" stop-color="#6e6c6b"/><stop offset="0.77" stop-color="#5e5a58"/><stop offset="0.87" stop-color="#494240"/><stop offset="0.96" stop-color="#2f2623"/><stop offset="1" stop-color="#231815"/></linearGradient></defs><title>アセット 1</title><g id="レイヤー_2" data-name="レイヤー 2"><g id="レイヤー_1-2" data-name="レイヤー 1"><rect class="cls-1" width="194.59" height="91.1" rx="33.72"/><path class="cls-2" d="M23,33.59c-.79.07-.93,0-1-.79s.08-.94.87-1.08a103.25,103.25,0,0,0,11.52-3.24c.5,0,.94.28.94.64-.08,2-.22,4.18-.22,7.06,2.16-3.89,5.18-7.92,9.29-7.92,2.45,0,4,.94,4,2.23,0,2.88-2.16,5.4-3.89,5.4s-2.59-1.58-4-1.58c-.87,0-1.87.36-3.31,2.16a9.3,9.3,0,0,0-2,6.34v8.78c0,4.32,0,6.62.5,7.63.58,1.16,1.73,1.16,4.25,1.37.43,0,.51.15.51.94s-.15.72-.51.72c-2.73-.07-5.76-.22-8.13-.22s-5.76.15-8.43.22c-.43,0-.58-.07-.58-.72s.15-.87.58-.94c2.16-.21,3.31-.21,3.82-1.37s.72-3.45.72-7.63V40.93a21,21,0,0,0-.58-5.9,2.06,2.06,0,0,0-2.45-1.59Z"/><path class="cls-2" d="M59.69,45.76C59.69,55.26,65.52,60,70,60c4.68,0,7.34-1.58,10-5.18a.86.86,0,0,1,.72-.36,1.29,1.29,0,0,1,.65.29c.28.21.57.5.57.72a2.18,2.18,0,0,1-.36.79c-3.31,5.11-7.34,7.13-13.32,7.13-9.94,0-16.63-7.35-16.63-17.28,0-9.72,6.91-17.79,16.7-17.79,9.51,0,13.83,8.35,14,13.4A1.55,1.55,0,0,1,82,43c-.36.43-.64.36-1.08.36-7.27-.22-14.54-.29-21-.14A10.8,10.8,0,0,0,59.69,45.76Zm14.11-5.4c.58-.07.65-.51.65-1.15-.21-4-1.94-8.72-6.12-8.72-3.89,0-6.91,4.18-8,10.08A118.55,118.55,0,0,0,73.8,40.36Z"/><path class="cls-2" d="M96.34,47.27C91.08,44.82,88,43.09,88,36.9c0-4,3.38-8.64,11.37-8.64a25.67,25.67,0,0,1,5.19.72,14.6,14.6,0,0,0,4.75.07c.14,2.52.36,6,.65,8.36,0,.43-.15.57-.79.64a.81.81,0,0,1-1.08-.5c-2-4-5-7.27-8.43-7.27-4,0-5.62,2.16-5.62,5.11,0,2,1.59,3.53,5.41,5.11L102,41.58c6.26,2.74,9.86,4.9,9.86,11.31,0,5-3.74,10.44-12.67,10.44a25.74,25.74,0,0,1-10.23-2,58,58,0,0,1-1.58-7.85c0-.5.07-.57.72-.65s.79-.07,1,.44c2.37,4.68,6.33,8,10.08,8,4.25,0,6.26-2.66,6.26-6.41,0-3.1-2.45-4.39-6.62-6.41Z"/><path class="cls-2" d="M125.71,45.76c0,9.5,5.84,14.25,10.3,14.25,4.68,0,7.35-1.58,10-5.18a.87.87,0,0,1,.72-.36,1.25,1.25,0,0,1,.65.29c.29.21.57.5.57.72a2.18,2.18,0,0,1-.36.79c-3.31,5.11-7.34,7.13-13.32,7.13-9.93,0-16.63-7.35-16.63-17.28,0-9.72,6.91-17.79,16.71-17.79,9.5,0,13.82,8.35,14,13.4A1.55,1.55,0,0,1,148,43c-.36.43-.65.36-1.08.36-7.28-.22-14.55-.29-21-.14A10.8,10.8,0,0,0,125.71,45.76Zm14.12-5.4c.57-.07.65-.51.65-1.15-.22-4-1.95-8.72-6.12-8.72-3.89,0-6.92,4.18-8,10.08A118.73,118.73,0,0,0,139.83,40.36Z"/><path class="cls-2" d="M151.85,32.58c-.65,0-.79-.14-.79-1s.07-.93.86-1a12.22,12.22,0,0,0,6.34-3.09A16.28,16.28,0,0,0,162,22.36c.22-.58.43-.72,1.23-.72s1,.21,1,.72c-.07,2.37-.21,5.11-.21,7.34,3.24,0,7.2-.07,10.22-.22.29,0,.36.22.29.51l-.79,2.09a.72.72,0,0,1-.72.5c-2.66-.14-6.05-.29-9.15-.29l-.14,18.44c0,4,.36,6,1.37,7.41a4.83,4.83,0,0,0,3.89,2,7.09,7.09,0,0,0,4.61-2c.36-.29.72-.21,1.15.22s.72.79.14,1.37a11.46,11.46,0,0,1-8.71,3.74c-3.39,0-5.76-.72-7.56-2.45-1.59-1.73-2.45-4-2.45-8.06,0-3.46.07-6.7.14-10.15l.15-10.3Z"/></g></g></svg>